<svg viewBox="0 0 40 40" fill="none" xmlns="http://www.w3.org/2000/svg">
<g clip-path="url(#clip0_2_9)">
<path d="M18.3178 0.834999L0.836264 18.3019C0.61271 18.5246 0.435327 18.7892 0.314291 19.0806C0.193256 19.372 0.130951 19.6845 0.130951 20C0.130951 20.3155 0.193256 20.628 0.314291 20.9194C0.435327 21.2108 0.61271 21.4754 0.836264 21.6981L18.3178 39.165C18.5408 39.3882 18.8056 39.5652 19.0971 39.686C19.3885 39.8068 19.7009 39.869 20.0164 39.869C20.3319 39.869 20.6443 39.8068 20.9358 39.686C21.2272 39.5652 21.492 39.3882 21.715 39.165L29.0453 31.8409C29.2454 31.641 29.404 31.4036 29.5123 31.1423C29.6206 30.881 29.6763 30.601 29.6763 30.3181C29.6763 30.0353 29.6206 29.7552 29.5123 29.4939C29.404 29.2327 29.2454 28.9953 29.0453 28.7953C28.641 28.3913 28.0928 28.1644 27.5213 28.1644C26.9497 28.1644 26.4015 28.3913 25.9972 28.7953L20.441 34.3469C20.2066 34.5812 19.851 34.5812 19.6178 34.3469L5.65689 20.3991C5.42345 20.1647 5.42345 19.8097 5.65689 19.5766L19.6178 5.6275C19.851 5.39437 20.2063 5.39437 20.4406 5.6275L25.9972 11.1791C26.4015 11.583 26.9497 11.81 27.5213 11.81C28.0928 11.81 28.641 11.583 29.0453 11.1791C29.2454 10.9791 29.404 10.7417 29.5123 10.4804C29.6206 10.2191 29.6763 9.93908 29.6763 9.65625C29.6763 9.37342 29.6206 9.09336 29.5123 8.83207C29.404 8.57078 29.2454 8.33338 29.0453 8.13344L21.7163 0.810624C20.7725 -0.107501 19.2541 -0.100001 18.3178 0.834999Z" fill="url(#paint0_linear_2_9)"/>
<path d="M18.3178 0.834999L0.836264 18.3019C0.61271 18.5246 0.435327 18.7892 0.314291 19.0806C0.193256 19.372 0.130951 19.6845 0.130951 20C0.130951 20.3155 0.193256 20.628 0.314291 20.9194C0.435327 21.2108 0.61271 21.4754 0.836264 21.6981L18.3178 39.165C18.5408 39.3882 18.8056 39.5652 19.0971 39.686C19.3885 39.8068 19.7009 39.869 20.0164 39.869C20.3319 39.869 20.6443 39.8068 20.9358 39.686C21.2272 39.5652 21.492 39.3882 21.715 39.165L29.0453 31.8409C29.2454 31.641 29.404 31.4036 29.5123 31.1423C29.6206 30.881 29.6763 30.601 29.6763 30.3181C29.6763 30.0353 29.6206 29.7552 29.5123 29.4939C29.404 29.2327 29.2454 28.9953 29.0453 28.7953C28.641 28.3913 28.0928 28.1644 27.5213 28.1644C26.9497 28.1644 26.4015 28.3913 25.9972 28.7953L20.441 34.3469C20.2066 34.5812 19.851 34.5812 19.6178 34.3469L5.65689 20.3991C5.42345 20.1647 5.42345 19.8097 5.65689 19.5766L19.6178 5.6275C20.2003 5.12562 21.15 4.10875 22.5463 3.87094C23.5831 3.69406 24.7168 4.08302 25.9472 5.03781C25.1247 4.21531 23.7144 2.80625 21.7163 0.810624C20.7725 -0.107501 19.2541 -0.100001 18.3178 0.834999Z" fill="url(#paint1_linear_2_9)"/>
<path d="M30.7375 27.1703C31.1418 27.5742 31.6899 27.8011 32.2614 27.8011C32.8329 27.8011 33.381 27.5742 33.7853 27.1703L39.1919 21.7687C39.4153 21.5461 39.5926 21.2816 39.7136 20.9903C39.8345 20.6991 39.8968 20.3868 39.8968 20.0714C39.8968 19.756 39.8345 19.4437 39.7136 19.1524C39.5926 18.8612 39.4153 18.5967 39.1919 18.3741L33.7378 12.9431C33.3325 12.5396 32.7836 12.3134 32.2117 12.3141C31.6398 12.3148 31.0915 12.5424 30.6872 12.9469C30.4869 13.1467 30.3281 13.384 30.2197 13.6454C30.1112 13.9067 30.0555 14.1868 30.0555 14.4697C30.0555 14.7526 30.1112 15.0327 30.2197 15.294C30.3281 15.5553 30.4869 15.7927 30.6872 15.9925L34.3716 19.6728C34.4268 19.726 34.4707 19.7898 34.5007 19.8604C34.5307 19.931 34.5461 20.0069 34.5461 20.0836C34.5461 20.1603 34.5307 20.2362 34.5007 20.3068C34.4707 20.3773 34.4268 20.4411 34.3716 20.4944L30.7372 24.1259C30.537 24.3256 30.3781 24.5629 30.2697 24.8241C30.1613 25.0853 30.1056 25.3653 30.1056 25.6481C30.1056 25.9309 30.1613 26.2109 30.2697 26.4721C30.3781 26.7333 30.5373 26.9706 30.7375 27.1703Z" fill="url(#paint2_linear_2_9)"/>
<path fill-rule="evenodd" clip-rule="evenodd" d="M24.8244 20.0878C24.8244 17.4828 22.7112 15.3709 20.1037 15.3709C17.4975 15.3709 15.3834 17.4828 15.3834 20.0878C15.3834 22.6916 17.4975 24.8034 20.1037 24.8034C22.7112 24.8034 24.8244 22.6916 24.8244 20.0878Z" fill="url(#paint3_linear_2_9)"/>
</g>
<defs>
<linearGradient id="paint0_linear_2_9" x1="18.4779" y1="0.126874" x2="35.0959" y2="10.2837" gradientUnits="userSpaceOnUse">
<stop stop-color="#4285EB"/>
<stop offset="1" stop-color="#2EC7FF"/>
</linearGradient>
<linearGradient id="paint1_linear_2_9" x1="20.6937" y1="0.126874" x2="12.489" y2="42.5507" gradientUnits="userSpaceOnUse">
<stop stop-color="#29CDFF"/>
<stop offset="0.379" stop-color="#148EFF"/>
<stop offset="1" stop-color="#0A60FF"/>
</linearGradient>
<linearGradient id="paint2_linear_2_9" x1="36.9144" y1="10.2998" x2="26.2332" y2="26.9993" gradientUnits="userSpaceOnUse">
<stop stop-color="#FA816E"/>
<stop offset="0.415" stop-color="#F74A5C"/>
<stop offset="1" stop-color="#F51D2C"/>
</linearGradient>
<linearGradient id="paint3_linear_2_9" x1="21.8127" y1="12.0039" x2="18.2595" y2="26.2106" gradientUnits="userSpaceOnUse">
<stop stop-color="#FA8E7D"/>
<stop offset="0.513" stop-color="#F74A5C"/>
<stop offset="1" stop-color="#F51D2C"/>
</linearGradient>
<clipPath id="clip0_2_9">
<rect width="40" height="40" fill="white"/>
</clipPath>
</defs>
</svg>
