<svg viewBox="0 0 20 20" fill="none" xmlns="http://www.w3.org/2000/svg">
<g clip-path="url(#clip0_3815_1911)">
<path d="M15.4329 14.0809C15.2341 14.0808 15.0435 14.0018 14.903 13.8613C14.7624 13.7207 14.6834 13.5302 14.6833 13.3314L14.6833 6.30277L4.4727 16.5134C4.33204 16.654 4.14128 16.7331 3.94236 16.7331C3.74345 16.7331 3.55269 16.654 3.41204 16.5134C3.27138 16.3727 3.19237 16.182 3.19237 15.9831C3.19237 15.7842 3.27138 15.5934 3.41204 15.4527L13.6227 5.24211H6.59402C6.45939 5.2471 6.3259 5.21568 6.20763 5.15117C6.08936 5.08665 5.99067 4.99144 5.92198 4.87554C5.85328 4.75965 5.81712 4.62737 5.81729 4.49265C5.81747 4.35793 5.85397 4.22575 5.92297 4.11003C5.99161 3.99429 6.09013 3.89914 6.2082 3.83457C6.32626 3.77 6.45953 3.73839 6.59402 3.74304L15.4329 3.74304C15.6316 3.74317 15.8222 3.82218 15.9627 3.96271C16.1033 4.10325 16.1823 4.29383 16.1824 4.49258L16.1824 13.3314C16.1823 13.5302 16.1033 13.7207 15.9627 13.8613C15.8222 14.0018 15.6316 14.0808 15.4329 14.0809Z" fill="black"/>
</g>
</svg>
