<svg viewBox="0 0 51 40" fill="none" xmlns="http://www.w3.org/2000/svg">
<g clip-path="url(#clip0_3_31)">
<path d="M10.4259 0C7.56176 0 5.44235 2.50686 5.53725 5.22549C5.62843 7.83725 5.51 11.2202 4.65843 13.9788C3.80431 16.7455 2.35961 18.498 0 18.7231V21.2635C2.35961 21.4886 3.80431 23.2412 4.65843 26.008C5.51 28.7667 5.62843 32.1492 5.53725 34.7612C5.44235 37.4794 7.56176 39.9867 10.4263 39.9867H39.7739C42.6382 39.9867 44.7571 37.4798 44.6622 34.7612C44.5712 32.1494 44.6894 28.7667 45.541 26.008C46.3957 23.2414 47.8365 21.4884 50.1961 21.2635V18.7231C47.8365 18.498 46.3957 16.7455 45.5412 13.9788C44.6894 11.2206 44.5712 7.83745 44.6622 5.22549C44.7571 2.50725 42.6382 0 39.7739 0H10.4255H10.4259ZM34.0314 24.6143C34.0314 28.3578 31.2392 30.628 26.6055 30.628H18.7173C18.4917 30.6279 18.2753 30.5383 18.1158 30.3787C17.9563 30.2192 17.8667 30.0028 17.8667 29.7773V10.2094C17.8667 9.98375 17.9563 9.76733 18.1158 9.60775C18.2754 9.44816 18.4918 9.35848 18.7175 9.35843H26.5604C30.4241 9.35843 32.9598 11.4516 32.9598 14.6649C32.9598 16.9204 31.2539 18.9396 29.0808 19.2931V19.411C32.0394 19.7355 34.0314 21.7843 34.0314 24.6143ZM25.7451 12.0555H21.2476V18.4084H25.0359C27.9641 18.4084 29.579 17.2292 29.579 15.1214C29.579 13.1463 28.1902 12.0555 25.7451 12.0555ZM21.2478 20.9292V27.9302H25.911C28.9596 27.9302 30.5749 26.7069 30.5749 24.4076C30.5749 22.108 28.9147 20.9288 25.7149 20.9288H21.2478V20.9292Z" fill="#7E13F8"/>
</g>
<defs>
<clipPath id="clip0_3_31">
<rect width="50.1961" height="40" fill="white"/>
</clipPath>
</defs>
</svg>
