<svg viewBox="0 0 40 40" fill="none" xmlns="http://www.w3.org/2000/svg">
<path d="M6.04348 31.25C6.04348 33.3125 7.40924 35 9.08696 35C9.45416 34.9919 9.81586 34.9103 10.1501 34.76C10.4843 34.6098 10.784 34.3942 11.031 34.1263C11.1672 33.9765 11.3326 33.8553 11.5172 33.7699C11.7019 33.6844 11.9022 33.6364 12.1061 33.6288C12.3099 33.6211 12.5133 33.654 12.704 33.7254C12.8948 33.7967 13.069 33.9052 13.2164 34.0443C13.3637 34.1834 13.4812 34.3503 13.5618 34.535C13.6424 34.7198 13.6845 34.9186 13.6856 35.1197C13.6867 35.3208 13.6468 35.5201 13.5681 35.7057C13.4895 35.8913 13.3738 36.0594 13.228 36.2C12.6988 36.7625 12.0584 37.2124 11.3462 37.522C10.6341 37.8315 9.86524 37.9942 9.08696 38C5.72962 38 3 34.9719 3 31.25C3 27.5281 5.72962 24.5 9.08696 24.5C9.86524 24.5058 10.6341 24.6685 11.3462 24.978C12.0584 25.2876 12.6988 25.7375 13.228 26.3C13.3738 26.4406 13.4895 26.6087 13.5681 26.7943C13.6468 26.9799 13.6867 27.1792 13.6856 27.3803C13.6845 27.5814 13.6424 27.7802 13.5618 27.965C13.4812 28.1497 13.3637 28.3166 13.2164 28.4557C13.069 28.5948 12.8948 28.7033 12.704 28.7746C12.5133 28.846 12.3099 28.8789 12.1061 28.8712C11.9022 28.8636 11.7019 28.8156 11.5172 28.7301C11.3326 28.6447 11.1672 28.5235 11.031 28.3738C10.784 28.1058 10.4843 27.8902 10.1501 27.74C9.81586 27.5898 9.45416 27.5081 9.08696 27.5C7.40924 27.5 6.04348 29.1875 6.04348 31.25ZM21.1848 29.6206C20.4239 29.4031 19.6364 29.18 19.197 28.9006C18.9573 28.7488 18.963 28.7131 18.984 28.5444C18.9868 28.408 19.0229 28.2743 19.0891 28.1546C19.1553 28.0348 19.2497 27.9325 19.3644 27.8562C20.2394 27.2712 22.2823 27.5319 23.1364 27.7512C23.5269 27.8524 23.9422 27.7966 24.2909 27.596C24.6396 27.3954 24.8931 27.0665 24.9958 26.6816C25.0984 26.2967 25.0418 25.8873 24.8383 25.5436C24.6348 25.1999 24.3011 24.9499 23.9106 24.8488C23.5073 24.7456 19.916 23.87 17.6658 25.3662C17.1892 25.681 16.7888 26.0954 16.4929 26.5798C16.1971 27.0642 16.013 27.6069 15.9538 28.1694C15.5734 31.1469 18.5484 31.9962 20.3288 32.5025C22.6247 33.1569 22.8264 33.425 22.7598 33.9256C22.7008 34.3775 22.5201 34.5519 22.3527 34.6625C21.4777 35.2362 19.4671 34.955 18.634 34.73C18.2471 34.6288 17.8354 34.682 17.4881 34.8779C17.1407 35.0738 16.8856 35.3967 16.778 35.7767C16.6704 36.1567 16.7191 36.5631 16.9134 36.908C17.1076 37.2529 17.4319 37.5085 17.816 37.6194C18.7588 37.863 19.7289 37.989 20.7035 37.9944C21.8125 37.9944 23.0432 37.8069 24.0304 37.1581C24.5177 36.839 24.9272 36.4174 25.2294 35.9236C25.5317 35.4298 25.7192 34.8762 25.7785 34.3025C26.2065 31.0625 23.0641 30.1569 21.1848 29.6206ZM33.3587 29.6206C32.5978 29.4031 31.8103 29.18 31.3709 28.9006C31.1332 28.7488 31.137 28.7131 31.1579 28.5444C31.1607 28.408 31.1968 28.2743 31.263 28.1546C31.3292 28.0348 31.4236 27.9325 31.5383 27.8562C32.4133 27.2712 34.4563 27.5319 35.3084 27.7512C35.6989 27.8524 36.1142 27.7966 36.4629 27.596C36.8116 27.3954 37.0651 27.0665 37.1678 26.6816C37.2705 26.2967 37.2138 25.8873 37.0103 25.5436C36.8068 25.1999 36.4731 24.9499 36.0826 24.8488C35.6812 24.7456 32.088 23.87 29.8378 25.3662C29.3633 25.6823 28.9649 26.0971 28.6707 26.5815C28.3766 27.0658 28.1938 27.6078 28.1353 28.1694C27.7549 31.1469 30.7318 31.9962 32.5103 32.5025C34.8043 33.1569 35.006 33.425 34.9413 33.9256C34.8823 34.3775 34.7016 34.5519 34.5323 34.6625C33.6573 35.2362 31.6486 34.955 30.8155 34.73C30.426 34.6231 30.0094 34.6731 29.6573 34.8689C29.3052 35.0648 29.0465 35.3905 28.938 35.7744C28.8296 36.1583 28.8803 36.5689 29.079 36.916C29.2777 37.263 29.6081 37.5181 29.9976 37.625C30.941 37.8686 31.9117 37.9946 32.887 38C33.994 38 35.2266 37.8125 36.2139 37.1637C36.7009 36.8445 37.1101 36.4228 37.412 35.9291C37.7139 35.4353 37.9011 34.8817 37.9601 34.3081C38.3804 31.0625 35.238 30.1569 33.3568 29.6206H33.3587ZM4.52174 18.5V5C4.52174 4.20435 4.84239 3.44129 5.41315 2.87868C5.98392 2.31607 6.75804 2 7.56522 2H25.8261C26.026 1.99985 26.224 2.03851 26.4087 2.1138C26.5934 2.18908 26.7613 2.2995 26.9027 2.43875L37.5549 12.9388C37.6962 13.0782 37.8082 13.2436 37.8846 13.4257C37.9609 13.6078 38.0002 13.803 38 14V18.5C38 18.8978 37.8397 19.2794 37.5543 19.5607C37.2689 19.842 36.8819 20 36.4783 20C36.0747 20 35.6876 19.842 35.4022 19.5607C35.1168 19.2794 34.9565 18.8978 34.9565 18.5V15.5H25.8261C25.4225 15.5 25.0354 15.342 24.7501 15.0607C24.4647 14.7794 24.3043 14.3978 24.3043 14V5H7.56522V18.5C7.56522 18.8978 7.40489 19.2794 7.11951 19.5607C6.83413 19.842 6.44707 20 6.04348 20C5.63989 20 5.25283 19.842 4.96745 19.5607C4.68207 19.2794 4.52174 18.8978 4.52174 18.5ZM27.3478 12.5H32.8033L27.3478 7.12063V12.5Z" fill="black"/>
</svg>
