<svg viewBox="0 0 50 40" fill="none" xmlns="http://www.w3.org/2000/svg">
<path fill-rule="evenodd" clip-rule="evenodd" d="M8.66273 3.93668C9.75796 2.84145 11.3081 2 12.984 2C13.8481 2 14.5485 2.70045 14.5485 3.5645C14.5485 4.42854 13.8481 5.12899 12.984 5.12899C12.3445 5.12899 11.5479 5.47655 10.8753 6.14921C10.2026 6.82187 9.85504 7.61844 9.85504 8.25798V14.516C9.85504 16.7638 8.73972 18.7064 7.38464 20.0476C7.12781 20.3018 6.85266 20.5438 6.56356 20.7687C6.85774 20.997 7.13747 21.2432 7.39827 21.5022C8.75169 22.8463 9.85504 24.7886 9.85504 27.0319V33.2899C9.85504 33.9295 10.2026 34.726 10.8753 35.3987C11.5479 36.0713 12.3445 36.4189 12.984 36.4189C13.8481 36.4189 14.5485 37.1194 14.5485 37.9834C14.5485 38.8474 13.8481 39.5479 12.984 39.5479C11.3081 39.5479 9.75796 38.7064 8.66273 37.6112C7.56751 36.516 6.72605 34.9658 6.72605 33.2899V27.0319C6.72605 25.8333 6.12411 24.6467 5.19336 23.7223C4.22924 22.7648 3.17116 22.3384 2.5645 22.3384C1.70045 22.3384 1 21.638 1 20.7739C1 19.9099 1.70045 19.2095 2.5645 19.2095C3.15321 19.2095 4.21188 18.7854 5.18353 17.8237C6.12044 16.8964 6.72605 15.71 6.72605 14.516V8.25798C6.72605 6.58207 7.56751 5.0319 8.66273 3.93668ZM36.4515 3.5645C36.4515 2.70045 37.1519 2 38.016 2C39.6919 2 41.242 2.84145 42.3373 3.93668C43.4325 5.0319 44.2739 6.58207 44.2739 8.25798V14.516C44.2739 15.71 44.8796 16.8964 45.8165 17.8237C46.7881 18.7854 47.8468 19.2095 48.4355 19.2095C49.2996 19.2095 50 19.9099 50 20.7739C50 21.638 49.2996 22.3384 48.4355 22.3384C47.8288 22.3384 46.7708 22.7648 45.8066 23.7223C44.8759 24.6467 44.2739 25.8333 44.2739 27.0319V33.2899C44.2739 34.9658 43.4325 36.516 42.3373 37.6112C41.242 38.7064 39.6919 39.5479 38.016 39.5479C37.1519 39.5479 36.4515 38.8474 36.4515 37.9834C36.4515 37.1194 37.1519 36.4189 38.016 36.4189C38.6555 36.4189 39.4521 36.0713 40.1247 35.3987C40.7974 34.726 41.145 33.9295 41.145 33.2899V27.0319C41.145 24.7886 42.2483 22.8463 43.6017 21.5022C43.8625 21.2432 44.1423 20.997 44.4364 20.7687C44.1473 20.5438 43.8722 20.3018 43.6154 20.0476C42.2603 18.7064 41.145 16.7638 41.145 14.516V8.25798C41.145 7.61844 40.7974 6.82187 40.1247 6.14921C39.4521 5.47655 38.6555 5.12899 38.016 5.12899C37.1519 5.12899 36.4515 4.42854 36.4515 3.5645ZM17.6775 11.387C18.5416 11.387 19.242 12.0874 19.242 12.9515V28.5964C19.242 29.0114 19.4068 29.4093 19.7002 29.7027C19.9936 29.9961 20.3916 30.1609 20.8065 30.1609H22.371C23.2351 30.1609 23.9355 30.8614 23.9355 31.7254C23.9355 32.5895 23.2351 33.2899 22.371 33.2899H20.8065C19.5617 33.2899 18.3679 32.7954 17.4877 31.9152C16.6075 31.035 16.113 29.8412 16.113 28.5964V12.9515C16.113 12.0874 16.8135 11.387 17.6775 11.387ZM25.5 19.9917C25.5 16.9445 28.0709 14.516 30.9757 14.516H32.5402C33.7886 14.516 35.116 14.805 36.1777 15.5608C37.3023 16.3615 38.016 17.6149 38.016 19.2095C38.016 20.0735 37.3155 20.7739 36.4515 20.7739C35.5874 20.7739 34.887 20.0735 34.887 19.2095C34.887 18.645 34.6776 18.3339 34.3629 18.1098C33.9852 17.8409 33.357 17.645 32.5402 17.645H30.9757C29.7503 17.645 28.629 18.7209 28.629 19.9917C28.629 21.2625 29.7503 22.3384 30.9757 22.3384H32.5402C35.4451 22.3384 38.016 24.767 38.016 27.8142C38.016 30.8614 35.4451 33.2899 32.5402 33.2899H30.9757C29.7273 33.2899 28.4 33.0009 27.3383 32.245C26.2137 31.4444 25.5 30.191 25.5 28.5964C25.5 27.7324 26.2004 27.0319 27.0645 27.0319C27.9285 27.0319 28.629 27.7324 28.629 28.5964C28.629 29.1609 28.8384 29.472 29.1531 29.6961C29.5308 29.965 30.159 30.1609 30.9757 30.1609H32.5402C33.7657 30.1609 34.887 29.085 34.887 27.8142C34.887 26.5434 33.7657 25.4674 32.5402 25.4674H30.9757C28.0709 25.4674 25.5 23.0389 25.5 19.9917Z" fill="#8AADF4"/>
</svg>
