<svg viewBox="0 0 54 40" fill="none" xmlns="http://www.w3.org/2000/svg">
<path d="M44.5229 22.7904C42.7596 22.7995 41.227 23.2242 39.9439 23.852C39.4729 22.9195 39.002 22.0887 38.9191 21.4793C38.8266 20.7686 38.716 20.3346 38.8266 19.4852C38.9375 18.6359 39.436 17.4263 39.4267 17.3341C39.4174 17.2418 39.3159 16.8078 38.3004 16.7987C37.2849 16.7896 36.4078 16.9926 36.3063 17.2602C36.2047 17.5279 36.0109 18.1373 35.8816 18.7649C35.7062 19.6883 33.8506 22.984 32.789 24.7105C32.4473 24.0367 32.1519 23.4457 32.0872 22.9749C31.9949 22.2642 31.884 21.8302 31.9949 20.9808C32.1058 20.1314 32.6043 18.9221 32.595 18.8297C32.5857 18.7374 32.4841 18.3034 31.4686 18.2943C30.453 18.285 29.5759 18.4882 29.4745 18.7558C29.373 19.0237 29.2621 19.6513 29.0498 20.2607C28.8376 20.8701 26.3725 26.3726 25.7262 27.7941C25.4651 28.3695 25.1911 28.939 24.9046 29.5022C24.9046 29.5022 24.8953 29.5299 24.8676 29.576C24.7775 29.7526 24.6853 29.928 24.5908 30.1023V30.1114C24.4522 30.3608 24.3045 30.5915 24.2306 30.5915C24.1752 30.5915 24.0736 29.9268 24.2491 29.022C24.6183 27.1111 25.4954 24.1383 25.4863 24.0367C25.4863 23.9813 25.6524 23.4644 24.9139 23.1965C24.1936 22.9288 23.9353 23.3719 23.8705 23.3719C23.8058 23.3719 23.7596 23.5289 23.7596 23.5289C23.7596 23.5289 24.5631 20.1869 22.2272 20.1869C20.7687 20.1869 18.7559 21.784 17.7589 23.2242C16.6254 23.841 15.4929 24.4596 14.3614 25.0799C13.8169 25.3846 13.2537 25.6893 12.7274 25.9754C12.6904 25.9386 12.6536 25.8923 12.6165 25.8554C9.79147 22.8365 4.56621 20.7038 4.78775 16.651C4.87091 15.1739 5.37855 11.2963 14.8231 6.58796C22.5965 2.75652 28.7822 3.81812 29.8531 6.17239C31.3855 9.53301 26.5388 15.774 18.5067 16.6786C15.4416 17.0203 13.8352 15.8385 13.4291 15.3954C13.0044 14.9337 12.9397 14.906 12.7827 14.9984C12.5243 15.137 12.6904 15.5524 12.7827 15.7924C13.0228 16.42 14.0106 17.5279 15.6816 18.0728C17.1588 18.5527 20.75 18.8206 25.0984 17.1403C29.9637 15.2568 33.7675 10.0222 32.6504 5.63703C31.5332 1.18708 24.1475 -0.280796 17.1588 2.20255C13.0044 3.67993 8.49902 6.00627 5.25857 9.03448C1.40871 12.6349 0.799312 15.7646 1.04858 17.0757C1.94427 21.7286 8.36062 24.7568 10.9271 27.0002C10.7978 27.074 10.6777 27.1388 10.5763 27.1942C9.29294 27.8311 4.3999 30.3883 3.18129 33.0934C1.79657 36.1585 3.40304 38.3559 4.46464 38.6511C7.76053 39.5652 11.1487 37.9219 12.9674 35.2075C14.7861 32.4933 14.5645 28.9666 13.7245 27.351C13.7152 27.3326 13.7061 27.314 13.6875 27.2956C14.0199 27.1018 14.3614 26.8986 14.6938 26.7048C15.3048 26.3436 15.9235 25.9958 16.5496 25.6614C16.2355 26.5201 16.0047 27.5449 15.894 29.022C15.7554 30.7578 16.4662 33.0103 17.3987 33.8965C17.8143 34.2845 18.3035 34.2936 18.6175 34.2936C19.7068 34.2936 20.1963 33.3888 20.7409 32.3179C21.4056 31.0071 22.0057 29.4837 22.0057 29.4837C22.0057 29.4837 21.2579 33.6013 23.289 33.6013C24.0275 33.6013 24.7753 32.641 25.1077 32.1518V32.1609C25.1077 32.1609 25.1261 32.1332 25.1632 32.0687C25.237 31.9487 25.2831 31.8746 25.2831 31.8746V31.8564C25.5785 31.3393 26.2434 30.1668 27.2311 28.2188C28.5052 25.7077 29.7331 22.5689 29.7331 22.5689C29.7331 22.5689 29.844 23.3351 30.2223 24.6091C30.4441 25.3569 30.9054 26.1785 31.2748 26.9725C30.9794 27.3881 30.7947 27.6187 30.7947 27.6187L30.804 27.628C30.5638 27.9418 30.3055 28.2833 30.0192 28.616C29.0128 29.816 27.8128 31.1918 27.6465 31.5885C27.4525 32.0594 27.4988 32.4011 27.8683 32.6781C28.1359 32.8812 28.6159 32.9087 29.1053 32.8812C30.0101 32.8165 30.647 32.5949 30.9608 32.4565C31.4502 32.2811 32.0226 32.0132 32.558 31.6163C33.5459 30.8869 34.1458 29.8437 34.0906 28.4683C34.0629 27.7112 33.8136 26.9541 33.5089 26.2431C33.6014 26.114 33.6843 25.9847 33.7768 25.8554C35.3369 23.575 36.5464 21.0731 36.5464 21.0731C36.5464 21.0731 36.6573 21.8393 37.0356 23.1135C37.2204 23.7597 37.5989 24.4614 37.9311 25.1445C36.4633 26.3356 35.5585 27.7203 35.2353 28.6251C34.6539 30.3054 35.1061 31.0623 35.9647 31.2377C36.3524 31.3209 36.9064 31.1361 37.3126 30.9607C37.8296 30.7946 38.439 30.5085 39.0207 30.0836C40.0086 29.3545 40.9593 28.3388 40.9039 26.9634C40.8762 26.3356 40.7101 25.7168 40.4792 25.1167C41.7255 24.6 43.332 24.3137 45.3814 24.5537C49.7761 25.0706 50.6439 27.8125 50.4776 28.9668C50.3114 30.1207 49.3882 30.7485 49.0837 30.9423C48.7788 31.1363 48.6775 31.2009 48.7052 31.3393C48.742 31.5424 48.8897 31.5333 49.1483 31.4963C49.5084 31.4317 51.4564 30.5638 51.5394 28.4404C51.6779 25.7262 49.0928 22.7627 44.5229 22.7904ZM10.6224 34.2198C9.16366 35.8076 7.13271 36.4077 6.25563 35.9001C5.314 35.3552 5.68325 33.0103 7.47424 31.3302C8.56356 30.3054 9.96689 29.3543 10.8994 28.7728C11.1116 28.6435 11.4257 28.459 11.8042 28.2281C11.8688 28.1911 11.9058 28.1727 11.9058 28.1727L12.1273 28.0341C12.7827 30.4345 12.155 32.5488 10.6224 34.2198ZM21.2395 27.0002C20.7316 28.2374 19.67 31.404 19.0238 31.2286C18.4698 31.0809 18.1281 28.6805 18.9129 26.3078C19.3099 25.1167 20.1499 23.695 20.6394 23.1412C21.4333 22.2549 22.3104 21.9593 22.5226 22.3196C22.7905 22.7904 21.5533 26.2247 21.2395 27.0002ZM30.0008 31.1916C29.7883 31.3024 29.5854 31.3763 29.4929 31.3209C29.4284 31.2838 29.5854 31.1361 29.5854 31.1361C29.5854 31.1361 30.684 29.9546 31.1178 29.419C31.3673 29.1052 31.6625 28.7359 31.9765 28.3204V28.4404C31.9765 29.853 30.61 30.8039 30.0006 31.1916M36.7585 29.6499C36.6015 29.539 36.6292 29.1697 37.1554 28.0157C37.3586 27.5633 37.8385 26.8064 38.6603 26.077C38.7526 26.3724 38.8173 26.6587 38.808 26.9263C38.7987 28.7082 37.5249 29.3729 36.7585 29.6499Z" fill="#CD6799"/>
</svg>
